<?xml version="1.0" encoding="utf-8"?>
<!-- Generator: Adobe Illustrator 16.0.0, SVG Export Plug-In . SVG Version: 6.00 Build 0)  -->
<svg version="1.2" baseProfile="tiny" id="Layer_1" xmlns="http://www.w3.org/2000/svg" xmlns:xlink="http://www.w3.org/1999/xlink"
	 x="0px" y="0px" width="580px" height="160px" viewBox="0 0 580 160" xml:space="preserve">
<g>
	<polygon fill="#414042" points="37.13,110.468 51.694,110.468 66.285,110.468 80.85,110.468 95.418,110.468 109.977,110.468 
		109.977,95.907 109.977,81.342 109.977,66.78 109.977,52.19 95.418,52.19 80.85,52.19 66.285,52.19 51.694,52.19 51.694,66.78 
		66.285,66.78 80.85,66.78 95.418,66.78 95.418,81.342 95.418,95.907 80.85,95.907 66.285,95.907 51.694,95.907 37.13,95.907 
		22.568,95.907 22.568,81.342 22.568,66.78 22.568,52.19 22.568,37.625 22.568,23.06 37.13,23.06 51.694,23.06 66.285,23.06 
		80.85,23.06 95.418,23.06 109.977,23.06 109.977,8.495 95.418,8.495 80.85,8.495 66.285,8.495 51.694,8.495 37.13,8.495 
		22.568,8.495 8.003,8.495 8.003,23.06 8.003,37.625 8.003,52.19 8.003,66.78 8.003,81.342 8.003,95.907 8.003,110.468 
		22.568,110.468 	"/>
	<path fill="#414042" d="M196.335,8.495h-14.564H167.18h-14.564h-14.559h-14.568V23.06v14.565V52.19v14.59v14.562v14.565v14.562
		h14.568V95.907V81.342V66.78h14.559h8.563l43.686,43.686h20.598L181.775,66.78h14.56H210.9h14.562V52.19V37.625V23.06V8.495H210.9
		H196.335z M210.9,37.625V52.19h-14.565h-14.564H167.18h-14.564h-14.559V37.625V23.06h14.559h14.564h14.591h14.564H210.9V37.625z"/>
	<path fill="#414042" d="M311.82,8.495h-14.562h-14.591H268.1h-14.562h-14.564V23.06v14.565V52.19v14.59v14.562v14.565v14.562
		h14.564V95.907V81.342V66.78H268.1h14.568h14.591h14.562h14.564v14.562v14.565v14.562h14.562V95.907V81.342V66.78V52.19V37.625
		V23.06V8.495h-14.562H311.82z M326.385,37.625V52.19H311.82h-14.562h-14.591H268.1h-14.562V37.625V23.06H268.1h14.568h14.591
		h14.562h14.564V37.625z"/>
	<polygon fill="#414042" points="427.306,8.495 412.74,8.495 398.15,8.495 383.585,8.495 369.023,8.495 354.459,8.495 
		354.459,23.06 354.459,37.625 354.459,52.19 354.459,66.78 354.459,81.342 354.459,95.907 354.459,110.468 369.023,110.468 
		383.585,110.468 398.15,110.468 412.74,110.468 427.306,110.468 441.87,110.468 456.432,110.468 456.432,95.907 441.87,95.907 
		427.306,95.907 412.74,95.907 398.15,95.907 383.585,95.907 369.023,95.907 369.023,81.342 369.023,66.78 369.023,52.19 
		369.023,37.625 369.023,23.06 383.585,23.06 398.15,23.06 412.74,23.06 427.306,23.06 441.87,23.06 456.432,23.06 456.432,8.495 
		441.87,8.495 	"/>
	<polygon fill="#414042" points="484.589,23.06 499.15,23.06 513.716,23.06 528.31,23.06 542.871,23.06 557.436,23.06 
		571.997,23.06 571.997,8.495 557.436,8.495 542.871,8.495 528.31,8.495 513.716,8.495 499.15,8.495 484.589,8.495 470.024,8.495 
		470.024,23.06 470.024,37.625 470.024,52.19 470.024,66.78 470.024,81.342 470.024,95.907 470.024,110.468 484.589,110.468 
		499.15,110.468 513.716,110.468 528.31,110.468 542.871,110.468 557.436,110.468 571.997,110.468 571.997,95.907 557.436,95.907 
		542.871,95.907 528.31,95.907 513.716,95.907 499.15,95.907 484.589,95.907 484.589,81.342 484.589,66.78 499.15,66.78 
		513.716,66.78 528.31,66.78 542.871,66.78 557.436,66.78 571.997,66.78 571.997,52.19 557.436,52.19 542.871,52.19 528.31,52.19 
		513.716,52.19 499.15,52.19 484.589,52.19 484.589,37.625 	"/>
	<rect x="9.299" y="136.754" fill="#DA1C5C" width="101.975" height="14.751"/>
</g>
</svg>
