<?xml version="1.0" encoding="utf-8"?>
<!-- Generator: Adobe Illustrator 16.0.0, SVG Export Plug-In . SVG Version: 6.00 Build 0)  -->
<svg version="1.2" baseProfile="tiny" id="Layer_1" xmlns="http://www.w3.org/2000/svg" xmlns:xlink="http://www.w3.org/1999/xlink"
	 x="0px" y="0px" width="580px" height="125px" viewBox="0 0 580 125" xml:space="preserve">
<g>
	<polygon fill="#d91b5b" points="80.85,11.514 66.285,11.514 51.694,11.514 37.13,11.514 22.568,11.514 8.003,11.514 8.003,26.079 
		8.003,40.644 8.003,55.208 8.003,69.799 8.003,84.36 8.003,98.925 8.003,113.487 22.568,113.487 37.13,113.487 51.694,113.487 
		66.285,113.487 80.85,113.487 95.418,113.487 109.977,113.487 109.977,98.925 109.977,84.36 109.977,69.799 109.977,55.208 
		95.418,55.208 80.85,55.208 66.285,55.208 51.694,55.208 51.694,69.799 66.285,69.799 80.85,69.799 95.418,69.799 95.418,84.36 
		95.418,98.925 80.85,98.925 66.285,98.925 51.694,98.925 37.13,98.925 22.568,98.925 22.568,84.36 22.568,69.799 22.568,55.208 
		22.568,40.644 22.568,26.079 37.13,26.079 51.694,26.079 66.285,26.079 80.85,26.079 95.418,26.079 109.977,26.079 109.977,11.514 
		95.418,11.514 	"/>
	<path fill="#d91b5b" d="M196.335,11.514h-14.564H167.18h-14.564h-14.559h-14.568v14.565v14.565v14.565v14.59V84.36v14.565v14.562
		h14.568V98.925V84.36V69.799h14.559h8.563l43.686,43.686h20.598l-43.686-43.686h14.56H210.9h14.562v-14.59V40.644V26.079V11.514
		H210.9H196.335z M210.9,40.644v14.565h-14.565h-14.564H167.18h-14.564h-14.559V40.644V26.079h14.559h14.564h14.591h14.564H210.9
		V40.644z"/>
	<path fill="#d91b5b" d="M311.82,11.514h-14.562h-14.591H268.1h-14.562h-14.564v14.565v14.565v14.565v14.59V84.36v14.565v14.562
		h14.564V98.925V84.36V69.799H268.1h14.568h14.591h14.562h14.564V84.36v14.565v14.562h14.562V98.925V84.36V69.799v-14.59V40.644
		V26.079V11.514h-14.562H311.82z M326.385,40.644v14.565H311.82h-14.562h-14.591H268.1h-14.562V40.644V26.079H268.1h14.568h14.591
		h14.562h14.564V40.644z"/>
	<polygon fill="#d91b5b" points="427.306,11.514 412.74,11.514 398.15,11.514 383.585,11.514 369.023,11.514 354.459,11.514 
		354.459,26.079 354.459,40.644 354.459,55.208 354.459,69.799 354.459,84.36 354.459,98.925 354.459,113.487 369.023,113.487 
		383.585,113.487 398.15,113.487 412.74,113.487 427.306,113.487 441.87,113.487 456.432,113.487 456.432,98.925 441.87,98.925 
		427.306,98.925 412.74,98.925 398.15,98.925 383.585,98.925 369.023,98.925 369.023,84.36 369.023,69.799 369.023,55.208 
		369.023,40.644 369.023,26.079 383.585,26.079 398.15,26.079 412.74,26.079 427.306,26.079 441.87,26.079 456.432,26.079 
		456.432,11.514 441.87,11.514 	"/>
	<polygon fill="#d91b5b" points="484.589,26.079 499.15,26.079 513.716,26.079 528.31,26.079 542.871,26.079 557.436,26.079 
		571.997,26.079 571.997,11.514 557.436,11.514 542.871,11.514 528.31,11.514 513.716,11.514 499.15,11.514 484.589,11.514 
		470.024,11.514 470.024,26.079 470.024,40.644 470.024,55.208 470.024,69.799 470.024,84.36 470.024,98.925 470.024,113.487 
		484.589,113.487 499.15,113.487 513.716,113.487 528.31,113.487 542.871,113.487 557.436,113.487 571.997,113.487 571.997,98.925 
		557.436,98.925 542.871,98.925 528.31,98.925 513.716,98.925 499.15,98.925 484.589,98.925 484.589,84.36 484.589,69.799 
		499.15,69.799 513.716,69.799 528.31,69.799 542.871,69.799 557.436,69.799 571.997,69.799 571.997,55.208 557.436,55.208 
		542.871,55.208 528.31,55.208 513.716,55.208 499.15,55.208 484.589,55.208 484.589,40.644 	"/>
</g>
</svg>
