<?xml version="1.0" encoding="utf-8"?>
<!-- Generator: Adobe Illustrator 16.0.0, SVG Export Plug-In . SVG Version: 6.00 Build 0)  -->
<svg version="1.2" baseProfile="tiny" id="Layer_1" xmlns="http://www.w3.org/2000/svg" xmlns:xlink="http://www.w3.org/1999/xlink"
	 x="0px" y="0px" width="1113px" height="125px" viewBox="0 0 1113 125" xml:space="preserve">
<g>
	<g>
		<path fill="#DA1C5C" d="M725.237,11.511h-14.564h-14.59h-14.564h-14.563h-14.564v14.565v14.565v14.565v14.59v14.562v14.565v14.565
			h14.564V98.923V84.357V69.796h14.563h8.553l43.695,43.693h20.598l-43.695-43.693h0.004h14.564h14.566h14.561v-14.59V40.641V26.076
			V11.511h-14.561H725.237z M739.804,40.641v14.565h-14.566h-14.564h-14.59h-14.564h-14.563V40.641V26.076h14.563h14.564h14.59
			h14.564h14.566V40.641z"/>
		<polygon fill="#DA1C5C" points="840.724,11.511 826.159,11.511 811.567,11.511 797.003,11.511 782.442,11.511 767.876,11.511 
			767.876,26.076 767.876,40.641 767.876,55.206 767.876,69.796 767.876,84.357 767.876,98.923 767.876,113.488 782.442,113.488 
			797.003,113.488 811.567,113.488 826.159,113.488 840.724,113.488 855.288,113.488 869.851,113.488 869.851,98.923 
			855.288,98.923 840.724,98.923 826.159,98.923 811.567,98.923 797.003,98.923 782.442,98.923 782.442,84.357 782.442,69.796 
			797.003,69.796 811.567,69.796 826.159,69.796 840.724,69.796 855.288,69.796 869.851,69.796 869.851,55.206 855.288,55.206 
			840.724,55.206 826.159,55.206 811.567,55.206 797.003,55.206 782.442,55.206 782.442,40.641 782.442,26.076 797.003,26.076 
			811.567,26.076 826.159,26.076 840.724,26.076 855.288,26.076 869.851,26.076 869.851,11.511 855.288,11.511 		"/>
		<path fill="#DA1C5C" d="M956.21,11.511h-14.566h-14.59h-14.564h-14.563h-14.564v14.565v14.565v14.565v14.59v14.562v14.565v14.565
			h14.564V98.923V84.357V69.796h14.563h14.564h14.59h14.566h14.564h14.561v-14.59V40.641V26.076V11.511h-14.561H956.21z
			 M970.774,40.641v14.565H956.21h-14.566h-14.59h-14.564h-14.563V40.641V26.076h14.563h14.564h14.59h14.566h14.564V40.641z"/>
		<polygon fill="#DA1C5C" points="1086.341,98.923 1071.774,98.923 1057.21,98.923 1042.616,98.923 1028.054,98.923 
			1013.493,98.923 1013.493,84.357 1013.493,69.796 1013.493,55.206 1013.493,40.641 1013.493,26.076 1013.493,11.511 
			998.929,11.511 998.929,26.076 998.929,40.641 998.929,55.206 998.929,69.796 998.929,84.357 998.929,98.923 998.929,113.488 
			1013.493,113.488 1028.054,113.488 1042.616,113.488 1057.21,113.488 1071.774,113.488 1086.341,113.488 1100.901,113.488 
			1100.901,98.923 		"/>
	</g>
	<g>
		<polygon fill="#414042" points="84.946,11.512 70.382,11.512 55.79,11.512 41.226,11.512 26.665,11.512 12.099,11.512 
			12.099,26.077 12.099,40.642 12.099,55.207 12.099,69.797 12.099,84.359 12.099,98.924 12.099,113.489 26.665,113.489 
			41.226,113.489 55.79,113.489 70.382,113.489 84.946,113.489 99.511,113.489 114.073,113.489 114.073,98.924 114.073,84.359 
			114.073,69.797 114.073,55.207 99.511,55.207 84.946,55.207 70.382,55.207 55.79,55.207 55.79,69.797 70.382,69.797 
			84.946,69.797 99.511,69.797 99.511,84.359 99.511,98.924 84.946,98.924 70.382,98.924 55.79,98.924 41.226,98.924 26.665,98.924 
			26.665,84.359 26.665,69.797 26.665,55.207 26.665,40.642 26.665,26.077 41.226,26.077 55.79,26.077 70.382,26.077 84.946,26.077 
			99.511,26.077 114.073,26.077 114.073,11.512 99.511,11.512 		"/>
		<path fill="#414042" d="M200.431,11.512h-14.564h-14.59h-14.564h-14.563h-14.564v14.565v14.565v14.565v14.59v14.562v14.565v14.565
			h14.564V98.924V84.359V69.797h14.563h8.557l43.689,43.69h20.598l-43.689-43.69l0,0h14.564h14.566h14.561v-14.59V40.642V26.077
			V11.512h-14.561H200.431z M214.997,40.642v14.565h-14.566h-14.564h-14.59h-14.564h-14.563V40.642V26.077h14.563h14.564h14.59
			h14.564h14.566V40.642z"/>
		<path fill="#414042" d="M315.917,11.512h-14.566h-14.59h-14.564h-14.563h-14.564v14.565v14.565v14.565v14.59v14.562v14.565v14.565
			h14.564V98.924V84.359V69.797h14.563h14.564h14.59h14.566h14.564v14.562v14.565v14.565h14.561V98.924V84.359V69.797v-14.59V40.642
			V26.077V11.512h-14.561H315.917z M330.481,40.642v14.565h-14.564h-14.566h-14.59h-14.564h-14.563V40.642V26.077h14.563h14.564
			h14.59h14.566h14.564V40.642z"/>
		<polygon fill="#414042" points="431.401,11.512 416.837,11.512 402.247,11.512 387.681,11.512 373.12,11.512 358.556,11.512 
			358.556,26.077 358.556,40.642 358.556,55.207 358.556,69.797 358.556,84.359 358.556,98.924 358.556,113.489 373.12,113.489 
			387.681,113.489 402.247,113.489 416.837,113.489 431.401,113.489 445.966,113.489 460.528,113.489 460.528,98.924 
			445.966,98.924 431.401,98.924 416.837,98.924 402.247,98.924 387.681,98.924 373.12,98.924 373.12,84.359 373.12,69.797 
			373.12,55.207 373.12,40.642 373.12,26.077 387.681,26.077 402.247,26.077 416.837,26.077 431.401,26.077 445.966,26.077 
			460.528,26.077 460.528,11.512 445.966,11.512 		"/>
		<polygon fill="#414042" points="488.685,26.077 503.247,26.077 517.812,26.077 532.401,26.077 546.968,26.077 561.532,26.077 
			576.093,26.077 576.093,11.512 561.532,11.512 546.968,11.512 532.401,11.512 517.812,11.512 503.247,11.512 488.685,11.512 
			474.12,11.512 474.12,26.077 474.12,40.642 474.12,55.207 474.12,69.797 474.12,84.359 474.12,98.924 474.12,113.489 
			488.685,113.489 503.247,113.489 517.812,113.489 532.401,113.489 546.968,113.489 561.532,113.489 576.093,113.489 
			576.093,98.924 561.532,98.924 546.968,98.924 532.401,98.924 517.812,98.924 503.247,98.924 488.685,98.924 488.685,84.359 
			488.685,69.797 503.247,69.797 517.812,69.797 532.401,69.797 546.968,69.797 561.532,69.797 576.093,69.797 576.093,55.207 
			561.532,55.207 546.968,55.207 532.401,55.207 517.812,55.207 503.247,55.207 488.685,55.207 488.685,40.642 		"/>
	</g>
</g>
</svg>
