<?xml version="1.0" encoding="utf-8"?>
<!-- Generator: Adobe Illustrator 16.0.0, SVG Export Plug-In . SVG Version: 6.00 Build 0)  -->
<svg version="1.2" baseProfile="tiny" id="Layer_1" xmlns="http://www.w3.org/2000/svg" xmlns:xlink="http://www.w3.org/1999/xlink"
	 x="0px" y="0px" width="580px" height="251.5px" viewBox="0 0 580 251.5" xml:space="preserve">
<polygon fill="#DA1C5C" points="103.791,139.075 97,139.075 90.198,139.075 83.407,139.075 76.615,139.075 69.814,139.075 
	63.013,139.075 56.193,139.075 49.396,139.075 42.605,139.075 35.799,139.075 29.008,139.075 22.211,139.075 15.405,139.075 
	8.613,139.075 8.613,145.871 8.613,152.677 8.613,159.469 8.613,166.265 8.613,173.062 8.613,179.857 8.613,186.654 8.613,193.479 
	8.613,200.275 8.613,207.071 8.613,213.868 8.613,220.664 8.613,227.461 8.613,234.257 8.613,241.054 15.405,241.054 
	22.211,241.054 29.008,241.054 35.799,241.054 42.605,241.054 49.396,241.054 56.193,241.054 63.013,241.054 69.814,241.054 
	76.615,241.054 83.407,241.054 90.198,241.054 97,241.054 103.791,241.054 110.593,241.054 110.593,234.257 110.593,227.461 
	110.593,220.664 110.593,213.868 110.593,207.071 110.593,200.275 110.593,193.479 110.593,186.654 110.593,179.857 
	110.593,173.062 110.593,166.265 110.593,159.469 110.593,152.677 110.593,145.871 110.593,139.075 "/>
<g>
	<polygon fill="#FFFFFF" points="17.885,224.845 33.68,224.845 68.756,190.065 33.756,155.362 17.885,155.286 52.961,190.065 	"/>
	<polygon fill="#FFFFFF" points="51.229,224.845 67.023,224.845 102.1,190.065 67.1,155.362 51.229,155.286 86.303,190.065 	"/>
</g>
<g>
	<path fill="#DA1C5C" d="M197.332,139.078h-14.565h-14.59h-14.565H139.05h-14.562v14.565v14.564v14.565v14.59v14.562v14.565v14.565
		h14.562V226.49v-14.565v-14.562h14.562h8.558l43.694,43.692h20.598l-43.693-43.692h14.564H211.9h14.562v-14.59v-14.565v-14.564
		v-14.565H211.9H197.332z M211.9,168.208v14.565h-14.568h-14.565h-14.59h-14.565H139.05v-14.565v-14.564h14.562h14.565h14.59h14.565
		H211.9V168.208z"/>
	<polygon fill="#DA1C5C" points="312.821,139.078 298.252,139.078 283.665,139.078 269.097,139.078 254.535,139.078 
		239.974,139.078 239.974,153.644 239.974,168.208 239.974,182.773 239.974,197.363 239.974,211.925 239.974,226.49 
		239.974,241.056 254.535,241.056 269.097,241.056 283.665,241.056 298.252,241.056 312.821,241.056 327.382,241.056 
		341.943,241.056 341.943,226.49 327.382,226.49 312.821,226.49 298.252,226.49 283.665,226.49 269.097,226.49 254.535,226.49 
		254.535,211.925 254.535,197.363 269.097,197.363 283.665,197.363 298.252,197.363 312.821,197.363 327.382,197.363 
		341.943,197.363 341.943,182.773 327.382,182.773 312.821,182.773 298.252,182.773 283.665,182.773 269.097,182.773 
		254.535,182.773 254.535,168.208 254.535,153.644 269.097,153.644 283.665,153.644 298.252,153.644 312.821,153.644 
		327.382,153.644 341.943,153.644 341.943,139.078 327.382,139.078 	"/>
	<path fill="#DA1C5C" d="M428.303,139.078h-14.562h-14.594h-14.564h-14.559h-14.568v14.565v14.564v14.565v14.59v14.562v14.565
		v14.565h14.568V226.49v-14.565v-14.562h14.559h14.564h14.594h14.562h14.569h14.561v-14.59v-14.565v-14.564v-14.565h-14.561H428.303
		z M442.872,168.208v14.565h-14.569h-14.562h-14.594h-14.564h-14.559v-14.565v-14.564h14.559h14.564h14.594h14.562h14.569V168.208z"
		/>
	<polygon fill="#DA1C5C" points="558.434,226.49 543.872,226.49 529.304,226.49 514.714,226.49 500.155,226.49 485.587,226.49 
		485.587,211.925 485.587,197.363 485.587,182.773 485.587,168.208 485.587,153.644 485.587,139.078 471.021,139.078 
		471.021,153.644 471.021,168.208 471.021,182.773 471.021,197.363 471.021,211.925 471.021,226.49 471.021,241.056 
		485.587,241.056 500.155,241.056 514.714,241.056 529.304,241.056 543.872,241.056 558.434,241.056 572.995,241.056 
		572.995,226.49 	"/>
</g>
<g>
	<polygon fill="#414042" points="79.851,10.444 65.286,10.444 50.696,10.444 36.131,10.444 21.569,10.444 7.004,10.444 
		7.004,25.006 7.004,39.575 7.004,54.14 7.004,68.73 7.004,83.291 7.004,97.853 7.004,112.422 21.569,112.422 36.131,112.422 
		50.696,112.422 65.286,112.422 79.851,112.422 94.416,112.422 108.978,112.422 108.978,97.853 108.978,83.291 108.978,68.73 
		108.978,54.14 94.416,54.14 79.851,54.14 65.286,54.14 50.696,54.14 50.696,68.73 65.286,68.73 79.851,68.73 94.416,68.73 
		94.416,83.291 94.416,97.853 79.851,97.853 65.286,97.853 50.696,97.853 36.131,97.853 21.569,97.853 21.569,83.291 21.569,68.73 
		21.569,54.14 21.569,39.575 21.569,25.006 36.131,25.006 50.696,25.006 65.286,25.006 79.851,25.006 94.416,25.006 108.978,25.006 
		108.978,10.444 94.416,10.444 	"/>
	<path fill="#414042" d="M195.336,10.444h-14.564h-14.59h-14.565h-14.562h-14.565v14.562v14.569V54.14V68.73v14.561v14.562v14.569
		h14.565V97.853V83.291V68.73h14.562h8.562l43.688,43.688h20.598L180.775,68.73h14.561h14.565h14.562V54.14V39.575V25.006V10.444
		h-14.562H195.336z M209.901,39.575V54.14h-14.565h-14.564h-14.59h-14.565h-14.562V39.575V25.006h14.562h14.565h14.59h14.564h14.565
		V39.575z"/>
	<path fill="#414042" d="M310.821,10.444h-14.565h-14.59h-14.565h-14.558h-14.568v14.562v14.569V54.14V68.73v14.561v14.562v14.569
		h14.568V97.853V83.291V68.73h14.558h14.565h14.59h14.565h14.568v14.561v14.562v14.569h14.558V97.853V83.291V68.73V54.14V39.575
		V25.006V10.444H325.39H310.821z M325.39,39.575V54.14h-14.568h-14.565h-14.59h-14.565h-14.558V39.575V25.006h14.558h14.565h14.59
		h14.565h14.568V39.575z"/>
	<polygon fill="#414042" points="426.307,10.444 411.741,10.444 397.151,10.444 382.586,10.444 368.028,10.444 353.46,10.444 
		353.46,25.006 353.46,39.575 353.46,54.14 353.46,68.73 353.46,83.291 353.46,97.853 353.46,112.422 368.028,112.422 
		382.586,112.422 397.151,112.422 411.741,112.422 426.307,112.422 440.875,112.422 455.433,112.422 455.433,97.853 440.875,97.853 
		426.307,97.853 411.741,97.853 397.151,97.853 382.586,97.853 368.028,97.853 368.028,83.291 368.028,68.73 368.028,54.14 
		368.028,39.575 368.028,25.006 382.586,25.006 397.151,25.006 411.741,25.006 426.307,25.006 440.875,25.006 455.433,25.006 
		455.433,10.444 440.875,10.444 	"/>
	<polygon fill="#414042" points="483.594,25.006 498.151,25.006 512.717,25.006 527.307,25.006 541.872,25.006 556.44,25.006 
		570.998,25.006 570.998,10.444 556.44,10.444 541.872,10.444 527.307,10.444 512.717,10.444 498.151,10.444 483.594,10.444 
		469.025,10.444 469.025,25.006 469.025,39.575 469.025,54.14 469.025,68.73 469.025,83.291 469.025,97.853 469.025,112.422 
		483.594,112.422 498.151,112.422 512.717,112.422 527.307,112.422 541.872,112.422 556.44,112.422 570.998,112.422 570.998,97.853 
		556.44,97.853 541.872,97.853 527.307,97.853 512.717,97.853 498.151,97.853 483.594,97.853 483.594,83.291 483.594,68.73 
		498.151,68.73 512.717,68.73 527.307,68.73 541.872,68.73 556.44,68.73 570.998,68.73 570.998,54.14 556.44,54.14 541.872,54.14 
		527.307,54.14 512.717,54.14 498.151,54.14 483.594,54.14 483.594,39.575 	"/>
</g>
</svg>
